<svg width="848" height="228" viewBox="0 0 848 228" fill="none" xmlns="http://www.w3.org/2000/svg">
<g opacity="0.8" filter="url(#filter0_b)">
<path fill-rule="evenodd" clip-rule="evenodd" d="M132.17 226.56C186.494 217.859 228 170.777 228 114C228 51.0395 176.96 0 114 0C51.0395 0 0 51.0395 0 114C0 176.96 51.0395 228 114 228C114.339 228 114.678 227.999 115.016 227.996L134.545 114.545H91.4091L84.8636 154.091H68L83.4545 61H100.318L93.7727 100.409H136.909L143.455 61H160.364L132.17 226.56Z" fill="url(#paint0_linear)"/>
<path d="M267.321 156H282.604V120.162H321.696V156H337.02V71.6364H321.696V107.351H282.604V71.6364H267.321V156ZM362.251 179.727C373.867 179.727 380.582 173.754 384.165 163.662L409.582 92.8097L393.64 92.7273L379.016 140.511H378.357L363.775 92.7273H347.957L370.901 157.318L369.624 160.737C366.864 167.946 362.498 168.44 355.989 166.545L352.529 178.162C354.548 178.986 358.173 179.727 362.251 179.727ZM419.931 179.727H434.843V146.031H435.461C437.809 150.645 442.711 157.112 453.586 157.112C468.498 157.112 479.662 145.29 479.662 124.446C479.662 103.355 468.169 91.9034 453.545 91.9034C442.382 91.9034 437.727 98.6179 435.461 103.19H434.596V92.7273H419.931V179.727ZM434.555 124.364C434.555 112.088 439.828 104.138 449.426 104.138C459.353 104.138 464.461 112.582 464.461 124.364C464.461 136.227 459.271 144.878 449.426 144.878C439.91 144.878 434.555 136.639 434.555 124.364ZM520.443 157.236C535.19 157.236 545.324 150.027 547.96 139.028L534.037 137.463C532.018 142.818 527.075 145.619 520.649 145.619C511.01 145.619 504.625 139.276 504.501 128.442H548.578V123.869C548.578 101.666 535.231 91.9034 519.66 91.9034C501.535 91.9034 489.713 105.209 489.713 124.734C489.713 144.589 501.37 157.236 520.443 157.236ZM504.542 118.391C504.995 110.317 510.968 103.52 519.866 103.52C528.434 103.52 534.201 109.781 534.284 118.391H504.542ZM561.193 156H576.105V118.803C576.105 110.77 582.161 105.085 590.358 105.085C592.871 105.085 596.001 105.538 597.278 105.95V92.233C595.919 91.9858 593.571 91.821 591.923 91.821C584.673 91.821 578.618 95.9403 576.311 103.273H575.652V92.7273H561.193V156ZM622.097 71.6364H607.185V156H622.097V71.6364ZM637.431 156H652.343V92.7273H637.431V156ZM644.929 83.7472C649.666 83.7472 653.538 80.1222 653.538 75.6733C653.538 71.1832 649.666 67.5582 644.929 67.5582C640.15 67.5582 636.278 71.1832 636.278 75.6733C636.278 80.1222 640.15 83.7472 644.929 83.7472ZM695.195 181.045C712.29 181.045 724.895 173.219 724.895 157.03V92.7273H710.189V103.19H709.365C707.099 98.6179 702.362 91.9034 691.199 91.9034C676.575 91.9034 665.082 103.355 665.082 124.158C665.082 144.795 676.575 155.094 691.158 155.094C701.991 155.094 707.058 149.286 709.365 144.631H710.107V156.618C710.107 165.928 703.928 169.759 695.442 169.759C686.462 169.759 682.507 165.516 680.695 161.808L667.266 165.062C669.984 173.919 679.088 181.045 695.195 181.045ZM695.318 143.395C685.473 143.395 680.283 135.733 680.283 124.075C680.283 112.582 685.391 104.138 695.318 104.138C704.916 104.138 710.189 112.088 710.189 124.075C710.189 136.145 704.834 143.395 695.318 143.395ZM755.089 118.926C755.089 109.781 760.774 104.509 768.766 104.509C776.592 104.509 781.206 109.493 781.206 118.02V156H796.118V115.713C796.118 100.43 787.467 91.9034 774.327 91.9034C764.605 91.9034 758.426 96.3111 755.501 103.479H754.76V71.6364H740.178V156H755.089V118.926ZM842.913 92.7273H830.432V77.5682H815.52V92.7273H806.54V104.261H815.52V139.44C815.438 151.345 824.088 157.195 835.293 156.865C839.536 156.741 842.46 155.918 844.067 155.382L841.554 143.724C840.73 143.93 839.041 144.301 837.188 144.301C833.439 144.301 830.432 142.983 830.432 136.969V104.261H842.913V92.7273Z" fill="url(#paint1_linear)"/>
</g>
<defs>
<filter id="filter0_b" x="-4" y="-4" width="852.067" height="236" filterUnits="userSpaceOnUse" color-interpolation-filters="sRGB">
<feFlood flood-opacity="0" result="BackgroundImageFix"/>
<feGaussianBlur in="BackgroundImage" stdDeviation="2"/>
<feComposite in2="SourceAlpha" operator="in" result="effect1_backgroundBlur"/>
<feBlend mode="normal" in="SourceGraphic" in2="effect1_backgroundBlur" result="shape"/>
</filter>
<linearGradient id="paint0_linear" x1="70" y1="-8" x2="125" y2="251" gradientUnits="userSpaceOnUse">
<stop offset="0.0175425" stop-color="#00D9F7"/>
<stop offset="0.646297" stop-color="#239BED"/>
<stop offset="1" stop-color="#3FAAE6"/>
</linearGradient>
<linearGradient id="paint1_linear" x1="819" y1="114" x2="528.616" y2="-106.213" gradientUnits="userSpaceOnUse">
<stop offset="0.0175425" stop-color="#00D9F7"/>
<stop offset="0.377393" stop-color="#40ACF5"/>
<stop offset="1" stop-color="#3FAAE6"/>
</linearGradient>
</defs>
</svg>
