<svg width="848" height="230" viewBox="0 0 848 230" fill="none" xmlns="http://www.w3.org/2000/svg">
<g opacity="0.8" filter="url(#filter0_b)">
<path d="M228 114C228 176.96 176.96 228 114 228C51.0395 228 0 176.96 0 114C0 51.0395 51.0395 0 114 0C176.96 0 228 51.0395 228 114Z" fill="url(#paint0_linear)"/>
<path d="M267.321 156H282.604V120.162H321.696V156H337.02V71.6364H321.696V107.351H282.604V71.6364H267.321V156ZM362.251 179.727C373.867 179.727 380.582 173.754 384.165 163.662L409.582 92.8097L393.64 92.7273L379.016 140.511H378.357L363.775 92.7273H347.957L370.901 157.318L369.624 160.737C366.864 167.946 362.498 168.44 355.989 166.545L352.529 178.162C354.548 178.986 358.173 179.727 362.251 179.727ZM419.931 179.727H434.843V146.031H435.461C437.809 150.645 442.711 157.112 453.586 157.112C468.498 157.112 479.662 145.29 479.662 124.446C479.662 103.355 468.169 91.9034 453.545 91.9034C442.382 91.9034 437.727 98.6179 435.461 103.19H434.596V92.7273H419.931V179.727ZM434.555 124.364C434.555 112.088 439.828 104.138 449.426 104.138C459.353 104.138 464.461 112.582 464.461 124.364C464.461 136.227 459.271 144.878 449.426 144.878C439.91 144.878 434.555 136.639 434.555 124.364ZM520.443 157.236C535.19 157.236 545.324 150.027 547.96 139.028L534.037 137.463C532.018 142.818 527.075 145.619 520.649 145.619C511.01 145.619 504.625 139.276 504.501 128.442H548.578V123.869C548.578 101.666 535.231 91.9034 519.66 91.9034C501.535 91.9034 489.713 105.209 489.713 124.734C489.713 144.589 501.37 157.236 520.443 157.236ZM504.542 118.391C504.995 110.317 510.968 103.52 519.866 103.52C528.434 103.52 534.201 109.781 534.284 118.391H504.542ZM561.193 156H576.105V118.803C576.105 110.77 582.161 105.085 590.358 105.085C592.871 105.085 596.001 105.538 597.278 105.95V92.233C595.919 91.9858 593.571 91.821 591.923 91.821C584.673 91.821 578.618 95.9403 576.311 103.273H575.652V92.7273H561.193V156ZM622.097 71.6364H607.185V156H622.097V71.6364ZM637.431 156H652.343V92.7273H637.431V156ZM644.929 83.7472C649.666 83.7472 653.538 80.1222 653.538 75.6733C653.538 71.1832 649.666 67.5582 644.929 67.5582C640.15 67.5582 636.278 71.1832 636.278 75.6733C636.278 80.1222 640.15 83.7472 644.929 83.7472ZM695.195 181.045C712.29 181.045 724.895 173.219 724.895 157.03V92.7273H710.189V103.19H709.365C707.099 98.6179 702.362 91.9034 691.199 91.9034C676.575 91.9034 665.082 103.355 665.082 124.158C665.082 144.795 676.575 155.094 691.158 155.094C701.991 155.094 707.058 149.286 709.365 144.631H710.107V156.618C710.107 165.928 703.928 169.759 695.442 169.759C686.462 169.759 682.507 165.516 680.695 161.808L667.266 165.062C669.984 173.919 679.088 181.045 695.195 181.045ZM695.318 143.395C685.473 143.395 680.283 135.733 680.283 124.075C680.283 112.582 685.391 104.138 695.318 104.138C704.916 104.138 710.189 112.088 710.189 124.075C710.189 136.145 704.834 143.395 695.318 143.395ZM755.089 118.926C755.089 109.781 760.774 104.509 768.766 104.509C776.592 104.509 781.206 109.493 781.206 118.02V156H796.118V115.713C796.118 100.43 787.467 91.9034 774.327 91.9034C764.605 91.9034 758.426 96.3111 755.501 103.479H754.76V71.6364H740.178V156H755.089V118.926ZM842.913 92.7273H830.432V77.5682H815.52V92.7273H806.54V104.261H815.52V139.44C815.438 151.345 824.088 157.195 835.293 156.865C839.536 156.741 842.46 155.918 844.067 155.382L841.554 143.724C840.73 143.93 839.041 144.301 837.188 144.301C833.439 144.301 830.432 142.983 830.432 136.969V104.261H842.913V92.7273Z" fill="url(#paint1_linear)"/>
<path d="M265.705 202.418H272.683V223H274.014V202.418H280.992V201.182H265.705V202.418ZM286.686 212.389C286.686 209.534 288.679 207.627 291.438 207.627C294.165 207.627 295.976 209.46 295.976 212.261V223H297.265V212.208C297.265 208.618 294.985 206.423 291.683 206.423C289.318 206.423 287.581 207.521 286.814 209.225H286.686V201.182H285.387V223H286.686V212.389ZM309.024 223.341C312.252 223.341 314.233 221.455 314.979 219.804L313.797 219.325C313.189 220.539 311.687 222.137 309.024 222.137C305.306 222.137 303.079 219.133 303.026 215.106H315.512V214.296C315.512 209.438 312.38 206.391 308.715 206.391C304.656 206.391 301.737 210.003 301.737 214.893C301.737 219.772 304.581 223.341 309.024 223.341ZM303.047 213.923C303.303 210.354 305.615 207.606 308.715 207.606C311.826 207.606 314.212 210.376 314.212 213.923H303.047ZM328.126 223H331.417V213.487H342.295V223H345.597V201.182H342.295V210.663H331.417V201.182H328.126V223ZM352.149 229.136C354.78 229.136 356.442 227.762 357.39 225.184L364.155 206.668L360.714 206.636L356.57 219.335H356.4L352.256 206.636H348.846L354.834 223.213L354.439 224.3C353.63 226.473 352.49 226.654 350.743 226.175L349.976 228.785C350.359 228.955 351.19 229.136 352.149 229.136ZM367.157 229.136H370.342V220.454H370.534C371.109 221.498 372.281 223.32 375.264 223.32C379.227 223.32 382.104 220.145 382.104 214.85C382.104 209.545 379.185 206.423 375.232 206.423C372.196 206.423 371.099 208.277 370.534 209.289H370.268V206.636H367.157V229.136ZM370.278 214.818C370.278 211.398 371.77 209.129 374.55 209.129C377.438 209.129 378.886 211.569 378.886 214.818C378.886 218.099 377.395 220.603 374.55 220.603C371.812 220.603 370.278 218.259 370.278 214.818ZM392.725 223.33C396.294 223.33 398.819 221.572 399.543 218.909L396.528 218.366C395.953 219.911 394.568 220.699 392.757 220.699C390.03 220.699 388.197 218.93 388.112 215.777H399.746V214.648C399.746 208.735 396.209 206.423 392.501 206.423C387.942 206.423 384.938 209.896 384.938 214.925C384.938 220.006 387.899 223.33 392.725 223.33ZM388.123 213.391C388.251 211.068 389.934 209.055 392.523 209.055C394.994 209.055 396.614 210.887 396.624 213.391H388.123ZM403.28 223H406.465V213.007C406.465 210.866 408.117 209.321 410.375 209.321C411.036 209.321 411.781 209.438 412.037 209.513V206.466C411.718 206.423 411.089 206.391 410.684 206.391C408.767 206.391 407.126 207.478 406.529 209.236H406.359V206.636H403.28V223ZM419.409 223.362C422.115 223.362 423.639 221.988 424.246 220.763H424.374V223H427.485V212.134C427.485 207.371 423.735 206.423 421.135 206.423C418.173 206.423 415.446 207.616 414.381 210.599L417.374 211.281C417.843 210.12 419.036 209.001 421.178 209.001C423.234 209.001 424.289 210.077 424.289 211.931V212.006C424.289 213.167 423.095 213.146 420.155 213.487C417.055 213.849 413.88 214.658 413.88 218.376C413.88 221.594 416.298 223.362 419.409 223.362ZM420.102 220.805C418.301 220.805 417.002 219.996 417.002 218.419C417.002 216.714 418.514 216.107 420.357 215.862C421.391 215.724 423.841 215.447 424.299 214.989V217.098C424.299 219.037 422.754 220.805 420.102 220.805ZM431.727 229.136H434.913V220.454H435.104C435.68 221.498 436.852 223.32 439.835 223.32C443.798 223.32 446.674 220.145 446.674 214.85C446.674 209.545 443.755 206.423 439.803 206.423C436.766 206.423 435.669 208.277 435.104 209.289H434.838V206.636H431.727V229.136ZM434.849 214.818C434.849 211.398 436.34 209.129 439.121 209.129C442.008 209.129 443.457 211.569 443.457 214.818C443.457 218.099 441.965 220.603 439.121 220.603C436.383 220.603 434.849 218.259 434.849 214.818ZM450.243 229.136H453.428V220.454H453.62C454.195 221.498 455.367 223.32 458.35 223.32C462.313 223.32 465.19 220.145 465.19 214.85C465.19 209.545 462.271 206.423 458.318 206.423C455.282 206.423 454.185 208.277 453.62 209.289H453.354V206.636H450.243V229.136ZM453.364 214.818C453.364 211.398 454.856 209.129 457.636 209.129C460.523 209.129 461.972 211.569 461.972 214.818C461.972 218.099 460.481 220.603 457.636 220.603C454.898 220.603 453.364 218.259 453.364 214.818ZM478.208 223H479.54V212.698H489.373V211.462H479.54V202.418H490.385V201.182H478.208V223ZM495.152 223H496.452V212.219C496.452 209.577 498.423 207.67 501.15 207.67C501.491 207.67 501.715 207.712 501.885 207.734V206.423C501.683 206.413 501.459 206.413 501.225 206.413C499.062 206.413 497.24 207.521 496.537 209.193H496.42V206.636H495.152V223ZM509.713 223.352C512.312 223.352 514.145 221.881 514.997 220.049H515.093V223H516.393V211.569C516.393 207.989 513.729 206.391 510.821 206.391C508.296 206.391 505.931 207.531 504.993 209.886L506.219 210.344C506.858 208.724 508.52 207.585 510.853 207.585C513.495 207.585 515.093 209.108 515.093 211.484V212.165C515.093 213.423 513.26 213.55 510.768 213.849C506.4 214.381 504.525 215.766 504.525 218.494C504.525 221.604 506.89 223.352 509.713 223.352ZM509.841 222.148C507.55 222.148 505.824 220.773 505.824 218.536C505.824 216.512 507.316 215.425 510.895 214.999C512.493 214.818 514.411 214.52 515.093 213.955V216.363C515.093 219.687 512.909 222.148 509.841 222.148ZM521.842 223H523.142V212.261C523.142 209.555 524.771 207.627 527.36 207.627C529.928 207.627 531.195 209.385 531.195 211.931V223H532.495V212.123C532.495 209.513 533.987 207.627 536.693 207.627C539.218 207.627 540.549 209.278 540.549 212.016V223H541.849V212.016C541.849 208.554 540.134 206.423 536.97 206.423C534.541 206.423 532.825 207.659 532.186 209.587H532.069C531.43 207.648 529.992 206.423 527.627 206.423C525.464 206.423 523.866 207.467 523.237 209.108H523.11V206.636H521.842V223ZM553.624 223.341C556.852 223.341 558.833 221.455 559.579 219.804L558.396 219.325C557.789 220.539 556.287 222.137 553.624 222.137C549.906 222.137 547.679 219.133 547.626 215.106H560.112V214.296C560.112 209.438 556.979 206.391 553.315 206.391C549.256 206.391 546.337 210.003 546.337 214.893C546.337 219.772 549.181 223.341 553.624 223.341ZM547.647 213.923C547.903 210.354 550.214 207.606 553.315 207.606C556.425 207.606 558.812 210.376 558.812 213.923H547.647ZM568.155 223H569.604L573.78 208.756H573.918L578.094 223H579.543L584.444 206.636H583.08L578.862 221.082H578.755L574.536 206.636H573.183L568.954 221.093H568.837L564.618 206.636H563.254L568.155 223ZM594.019 223.341C598.067 223.341 601.007 219.783 601.007 214.871C601.007 209.96 598.056 206.391 594.019 206.391C589.97 206.391 587.03 209.95 587.03 214.871C587.03 219.783 589.97 223.341 594.019 223.341ZM594.019 222.137C590.578 222.137 588.319 218.93 588.319 214.871C588.319 210.834 590.599 207.606 594.019 207.606C597.449 207.606 599.718 210.823 599.718 214.871C599.718 218.93 597.46 222.137 594.019 222.137ZM605.484 223H606.784V212.219C606.784 209.577 608.755 207.67 611.482 207.67C611.823 207.67 612.047 207.712 612.217 207.734V206.423C612.015 206.413 611.791 206.413 611.557 206.413C609.394 206.413 607.572 207.521 606.869 209.193H606.752V206.636H605.484V223ZM615.709 223H617.009V216.448L619.001 214.52L625.713 223H627.374L619.949 213.668L627.034 206.636H625.34L617.158 214.744H617.009V201.182H615.709V223ZM632.099 223.138C632.728 223.138 633.25 222.627 633.25 221.988C633.25 221.359 632.728 220.837 632.099 220.837C631.46 220.837 630.949 221.359 630.949 221.988C630.949 222.627 631.46 223.138 632.099 223.138Z" fill="black"/>
</g>
<path d="M79 106.5H41V121.5H79V159H93.5V121.5H131L124.5 106.5H93.5V69H79V106.5Z" fill="white"/>
<path d="M143.5 69H126L169.5 159H187L143.5 69Z" fill="white"/>
<defs>
<filter id="filter0_b" x="-4" y="-4" width="852.067" height="237.136" filterUnits="userSpaceOnUse" color-interpolation-filters="sRGB">
<feFlood flood-opacity="0" result="BackgroundImageFix"/>
<feGaussianBlur in="BackgroundImage" stdDeviation="2"/>
<feComposite in2="SourceAlpha" operator="in" result="effect1_backgroundBlur"/>
<feBlend mode="normal" in="SourceGraphic" in2="effect1_backgroundBlur" result="shape"/>
</filter>
<linearGradient id="paint0_linear" x1="70" y1="-8" x2="125" y2="251" gradientUnits="userSpaceOnUse">
<stop offset="0.0175425" stop-color="#00D9F7"/>
<stop offset="0.646297" stop-color="#239BED"/>
<stop offset="1" stop-color="#3FAAE6"/>
</linearGradient>
<linearGradient id="paint1_linear" x1="819" y1="114" x2="528.616" y2="-106.213" gradientUnits="userSpaceOnUse">
<stop offset="0.0175425" stop-color="#00D9F7"/>
<stop offset="0.377393" stop-color="#40ACF5"/>
<stop offset="1" stop-color="#3FAAE6"/>
</linearGradient>
</defs>
</svg>
